<svg width="22" height="22" viewBox="0 0 22 22" fill="none" xmlns="http://www.w3.org/2000/svg">
<g clip-path="url(#clip0_84_22)">
<mask id="mask0_84_22" style="mask-type:luminance" maskUnits="userSpaceOnUse" x="0" y="0" width="22" height="22">
<path d="M22 0H0V22H22V0Z" fill="white"/>
</mask>
<g mask="url(#mask0_84_22)">
<path d="M3.92859 11.7857L13.3572 3.92857" stroke="#F0C33C" stroke-width="1.6" stroke-linecap="round" stroke-linejoin="round"/>
<path d="M3.88135 19.8786L18.0243 7.30713" stroke="#BCBCBC" stroke-width="1.6" stroke-linecap="round"/>
<path d="M13.8286 19.0143L17.1285 15.7143" stroke="#BCBCBC" stroke-width="1.6" stroke-linecap="round"/>
<path d="M16.7965 22C16.2541 22 15.5581 21.8248 14.6881 21.3097L11.6277 19.4857C11.3104 19.3003 10.6962 19.3003 10.3892 19.4857L7.31852 21.3097C5.50684 22.3916 4.44233 21.9588 3.96127 21.6084C3.49043 21.2581 2.75347 20.3616 3.23455 18.3007L3.96127 15.1372C4.04314 14.8075 3.87939 14.2407 3.63372 13.9934L1.09532 11.4379C-0.173883 10.1602 -0.071528 9.06791 0.102476 8.53209C0.27648 7.99625 0.829197 7.04825 2.5897 6.74941L5.85483 6.20328C6.1619 6.15175 6.60203 5.82202 6.7351 5.5438L8.54678 1.90632C9.36562 0.247307 10.4404 0 11.0033 0C11.5662 0 12.641 0.247307 13.4598 1.90632L15.2613 5.53349C15.4046 5.81171 15.8447 6.14146 16.1518 6.19297L19.4169 6.7391C21.1876 7.03794 21.7404 7.98595 21.9041 8.52178C22.0679 9.0576 22.1702 10.1499 20.9113 11.4276L18.3728 13.9934C18.1272 14.2407 17.9737 14.7972 18.0453 15.1372L18.7721 18.3007C19.2429 20.3616 18.5161 21.2581 18.0453 21.6084C17.7895 21.794 17.38 22 16.7965 22ZM11.0033 17.7958C11.5048 17.7958 12.0064 17.9195 12.4056 18.1564L15.466 19.9804C16.3565 20.5161 16.9194 20.5161 17.1344 20.3616C17.3494 20.207 17.5029 19.6609 17.2777 18.6511L16.5509 15.4876C16.3565 14.6323 16.6738 13.5297 17.2879 12.9012L19.8262 10.3457C20.3278 9.84074 20.553 9.34613 20.4507 9.00609C20.3381 8.66604 19.8673 8.38783 19.1713 8.27447L15.9062 7.72833C15.118 7.59438 14.2582 6.9555 13.8999 6.23419L12.0985 2.60703C11.771 1.94753 11.3615 1.55597 11.0033 1.55597C10.6451 1.55597 10.2356 1.94753 9.91834 2.60703L8.10665 6.23419C7.7484 6.9555 6.88862 7.59438 6.10049 7.72833L2.84559 8.27447C2.14957 8.38783 1.67874 8.66604 1.56615 9.00609C1.45356 9.34613 1.68899 9.85105 2.19052 10.3457L4.72893 12.9012C5.34306 13.5194 5.66036 14.6323 5.46588 15.4876L4.73916 18.6511C4.50375 19.6711 4.66752 20.207 4.88246 20.3616C5.0974 20.5161 5.65012 20.5059 6.55085 19.9804L9.61127 18.1564C10.0002 17.9195 10.5018 17.7958 11.0033 17.7958Z" fill="#F0C33C"/>
<mask id="mask1_84_22" style="mask-type:luminance" maskUnits="userSpaceOnUse" x="0" y="0" width="22" height="22">
<path d="M16.7965 22C16.2541 22 15.5581 21.8248 14.6881 21.3097L11.6277 19.4857C11.3104 19.3003 10.6962 19.3003 10.3892 19.4857L7.31852 21.3097C5.50684 22.3916 4.44233 21.9588 3.96127 21.6084C3.49043 21.2581 2.75347 20.3616 3.23455 18.3007L3.96127 15.1372C4.04314 14.8075 3.87939 14.2407 3.63372 13.9934L1.09532 11.4379C-0.173883 10.1602 -0.071528 9.06791 0.102476 8.53209C0.27648 7.99625 0.829197 7.04825 2.5897 6.74941L5.85483 6.20328C6.1619 6.15175 6.60203 5.82202 6.7351 5.5438L8.54678 1.90632C9.36562 0.247307 10.4404 0 11.0033 0C11.5662 0 12.641 0.247307 13.4598 1.90632L15.2613 5.53349C15.4046 5.81171 15.8447 6.14146 16.1518 6.19297L19.4169 6.7391C21.1876 7.03794 21.7404 7.98595 21.9041 8.52178C22.0679 9.0576 22.1702 10.1499 20.9113 11.4276L18.3728 13.9934C18.1272 14.2407 17.9737 14.7972 18.0453 15.1372L18.7721 18.3007C19.2429 20.3616 18.5161 21.2581 18.0453 21.6084C17.7895 21.794 17.38 22 16.7965 22ZM11.0033 17.7958C11.5048 17.7958 12.0064 17.9195 12.4056 18.1564L15.466 19.9804C16.3565 20.5161 16.9194 20.5161 17.1344 20.3616C17.3494 20.207 17.5029 19.6609 17.2777 18.6511L16.5509 15.4876C16.3565 14.6323 16.6738 13.5297 17.2879 12.9012L19.8262 10.3457C20.3278 9.84074 20.553 9.34613 20.4507 9.00609C20.3381 8.66604 19.8673 8.38783 19.1713 8.27447L15.9062 7.72833C15.118 7.59438 14.2582 6.9555 13.8999 6.23419L12.0985 2.60703C11.771 1.94753 11.3615 1.55597 11.0033 1.55597C10.6451 1.55597 10.2356 1.94753 9.91834 2.60703L8.10665 6.23419C7.7484 6.9555 6.88862 7.59438 6.10049 7.72833L2.84559 8.27447C2.14957 8.38783 1.67874 8.66604 1.56615 9.00609C1.45356 9.34613 1.68899 9.85105 2.19052 10.3457L4.72893 12.9012C5.34306 13.5194 5.66036 14.6323 5.46588 15.4876L4.73916 18.6511C4.50375 19.6711 4.66752 20.207 4.88246 20.3616C5.0974 20.5161 5.65012 20.5059 6.55085 19.9804L9.61127 18.1564C10.0002 17.9195 10.5018 17.7958 11.0033 17.7958Z" fill="white"/>
</mask>
<g mask="url(#mask1_84_22)">
<path d="M14.688 21.3097L13.8835 22.6595L13.8874 22.6619L14.688 21.3097ZM11.6276 19.4857L12.4321 18.1359L12.4205 18.1289L11.6276 19.4857ZM10.3891 19.4857L11.1917 20.8368L11.2014 20.8309L10.3891 19.4857ZM7.31847 21.3097L6.51594 19.9586L6.51277 19.9604L7.31847 21.3097ZM3.96122 21.6084L3.02324 22.8693L3.03598 22.8786L3.96122 21.6084ZM3.2345 18.3007L4.7648 18.6579L4.76603 18.6525L3.2345 18.3007ZM3.96122 15.1372L2.4361 14.7586L2.43277 14.772L2.42969 14.7854L3.96122 15.1372ZM2.58965 6.74941L2.33041 5.19951L2.32667 5.20014L2.58965 6.74941ZM6.73504 5.5438L5.32843 4.84322L5.32283 4.85444L5.31741 4.86577L6.73504 5.5438ZM8.54673 1.90632L9.95336 2.60691L9.95586 2.60183L8.54673 1.90632ZM13.4598 1.90632L12.0506 2.60183L12.0524 2.60532L13.4598 1.90632ZM15.2612 5.53349L13.8538 6.23249L13.8589 6.2428L13.8642 6.25303L15.2612 5.53349ZM19.4168 6.7391L19.6783 5.18958L19.6761 5.18921L19.4168 6.7391ZM20.9113 11.4276L22.0284 12.5328L22.0306 12.5305L20.9113 11.4276ZM18.3728 13.9934L19.4877 15.1008L19.4899 15.0986L18.3728 13.9934ZM18.0453 15.1372L16.5076 15.4613L16.5106 15.4752L16.5138 15.4891L18.0453 15.1372ZM18.7721 18.3007L20.3041 17.9507L20.3036 17.9489L18.7721 18.3007ZM18.0453 21.6084L18.968 22.8805L18.9833 22.8692L18.0453 21.6084ZM12.4055 18.1564L13.21 16.8066L13.2077 16.8052L12.4055 18.1564ZM15.4659 19.9804L16.276 18.6338L16.2704 18.6305L15.4659 19.9804ZM17.2776 18.6511L18.8114 18.309L18.8092 18.2993L17.2776 18.6511ZM16.5509 15.4876L15.0185 15.8359L15.0193 15.8394L16.5509 15.4876ZM17.2879 12.9012L16.1729 11.7937L16.1638 11.803L17.2879 12.9012ZM20.4507 9.0061L21.9555 8.55338L21.9492 8.53253L21.9424 8.51185L20.4507 9.0061ZM19.1712 8.27447L18.9119 9.82439L18.9185 9.82545L19.1712 8.27447ZM15.9061 7.72833L15.6428 9.27756L15.6469 9.27823L15.9061 7.72833ZM9.91829 2.60703L11.3241 3.30921L11.3293 3.29881L11.3343 3.28834L9.91829 2.60703ZM8.1066 6.23419L6.70077 5.53201L6.6992 5.53519L8.1066 6.23419ZM6.10044 7.72833L6.36048 9.27811L6.36373 9.27754L6.10044 7.72833ZM2.84554 8.27447L3.09816 9.82549L3.10558 9.82423L2.84554 8.27447ZM2.19047 10.3457L3.30542 9.23818L3.2939 9.22682L2.19047 10.3457ZM5.46583 15.4876L6.99738 15.8394L6.99815 15.8361L5.46583 15.4876ZM4.73911 18.6511L6.27029 19.0045L6.27066 19.003L4.73911 18.6511ZM6.55079 19.9804L7.3427 21.3378L7.3553 21.3303L6.55079 19.9804ZM9.61121 18.1564L10.4158 19.5065L10.4288 19.4984L9.61121 18.1564ZM16.7965 22V20.4286C16.6013 20.4286 16.1797 20.3667 15.4886 19.9575L14.688 21.3097L13.8874 22.6619C14.9364 23.2829 15.9067 23.5714 16.7965 23.5714V22ZM14.688 21.3097L15.4925 19.9598L12.4321 18.1359L11.6276 19.4857L10.8231 20.8356L13.8835 22.6595L14.688 21.3097ZM11.6276 19.4857L12.4205 18.1289C11.9346 17.845 11.3934 17.7752 11.0045 17.7752C10.6201 17.7752 10.0689 17.8434 9.57682 18.1406L10.3891 19.4857L11.2014 20.8309C11.0908 20.8978 11.0131 20.9145 11.0041 20.9163C10.9876 20.92 10.9893 20.9181 11.0045 20.9181C11.0195 20.9181 11.0234 20.92 11.0107 20.9173C11.0046 20.9159 10.9359 20.9016 10.8347 20.8425L11.6276 19.4857ZM10.3891 19.4857L9.58659 18.1346L6.51594 19.9586L7.31847 21.3097L8.121 22.6608L11.1917 20.8368L10.3891 19.4857ZM7.31847 21.3097L6.51277 19.9604C5.80319 20.3843 5.37736 20.4312 5.18848 20.4254C5.008 20.4199 4.92086 20.3634 4.88646 20.3382L3.96122 21.6084L3.03598 22.8786C3.48264 23.2039 4.16829 23.5389 5.09325 23.5669C6.0098 23.5947 7.02207 23.317 8.12417 22.6589L7.31847 21.3097ZM3.96122 21.6084L4.89916 20.3476C4.8716 20.3271 4.7876 20.2593 4.72495 20.0794C4.66002 19.8929 4.57645 19.4648 4.7648 18.6579L3.2345 18.3007L1.70421 17.9435C1.41149 19.1975 1.45583 20.2482 1.75682 21.1128C2.06009 21.9838 2.57995 22.5396 3.02324 22.8693L3.96122 21.6084ZM3.2345 18.3007L4.76603 18.6525L5.49275 15.4891L3.96122 15.1372L2.42969 14.7854L1.70297 17.9489L3.2345 18.3007ZM3.96122 15.1372L5.48634 15.5159C5.61986 14.9782 5.53111 14.4504 5.43063 14.1006C5.32855 13.7452 5.12589 13.2658 4.74852 12.886L3.63367 13.9934L2.51878 15.1009C2.43896 15.0205 2.40887 14.961 2.4072 14.9578C2.40227 14.9483 2.40554 14.953 2.40991 14.9682C2.41435 14.9837 2.41321 14.9866 2.41201 14.9706C2.41143 14.9627 2.40499 14.8839 2.4361 14.7586L3.96122 15.1372ZM3.63367 13.9934L4.74852 12.886L2.21016 10.3305L1.09527 11.4379L-0.0196257 12.5454L2.51878 15.1009L3.63367 13.9934ZM1.09527 11.4379L2.21016 10.3305C1.7545 9.87176 1.62954 9.53601 1.59149 9.36517C1.55228 9.1891 1.57966 9.07092 1.59702 9.01744L0.102424 8.53209L-1.39217 8.04674C-1.54881 8.52909 -1.65961 9.22495 -1.4762 10.0484C-1.29163 10.8771 -0.833155 11.7264 -0.0196257 12.5454L1.09527 11.4379ZM0.102424 8.53209L1.59702 9.01744C1.61645 8.95765 1.66604 8.84234 1.80121 8.72091C1.93171 8.60368 2.22544 8.40515 2.85263 8.29868L2.58965 6.74941L2.32667 5.20014C1.19335 5.39252 0.33047 5.8174 -0.29901 6.38283C-0.92383 6.94408 -1.23759 7.57069 -1.39217 8.04674L0.102424 8.53209ZM2.58965 6.74941L2.84889 8.29931L6.11402 7.75318L5.85478 6.20328L5.59554 4.65338L2.33041 5.19951L2.58965 6.74941ZM5.85478 6.20328L6.11402 7.75318C6.61371 7.66933 7.03585 7.41586 7.30236 7.21619C7.56751 7.01753 7.93224 6.68271 8.15268 6.22182L6.73504 5.5438L5.31741 4.86577C5.34639 4.80521 5.37376 4.76346 5.39015 4.74036C5.40717 4.71639 5.41974 4.70214 5.4248 4.69659C5.43351 4.68709 5.4311 4.69108 5.41797 4.70091C5.40488 4.71072 5.39983 4.71232 5.41027 4.7072C5.41643 4.70417 5.43272 4.69651 5.4593 4.68727C5.48489 4.67836 5.53163 4.6641 5.59554 4.65338L5.85478 6.20328ZM6.73504 5.5438L8.14166 6.24437L9.95336 2.60691L8.54673 1.90632L7.14011 1.20574L5.32843 4.84322L6.73504 5.5438ZM8.54673 1.90632L9.95586 2.60183C10.2549 1.99597 10.5403 1.76343 10.6892 1.67265C10.8409 1.5801 10.9552 1.57143 11.0032 1.57143V2.14577e-06V-1.57143C10.4883 -1.57143 9.78382 -1.45645 9.05273 -1.01058C8.31878 -0.562957 7.65741 0.157656 7.1376 1.21081L8.54673 1.90632ZM11.0032 2.14577e-06V1.57143C11.0513 1.57143 11.1656 1.5801 11.3173 1.67265C11.4662 1.76343 11.7516 1.99597 12.0506 2.60183L13.4598 1.90632L14.8689 1.21081C14.3491 0.157656 13.6877 -0.562957 12.9538 -1.01058C12.2227 -1.45645 11.5182 -1.57143 11.0032 -1.57143V2.14577e-06ZM13.4598 1.90632L12.0524 2.60532L13.8538 6.23249L15.2612 5.53349L16.6686 4.83449L14.8672 1.20732L13.4598 1.90632ZM15.2612 5.53349L13.8642 6.25303C14.0881 6.68769 14.4402 7.01063 14.7075 7.20935C14.9716 7.40569 15.3922 7.65894 15.8918 7.74274L16.1517 6.19297L16.4116 4.6432C16.4756 4.65393 16.5215 4.66804 16.5469 4.67689C16.5733 4.68605 16.5894 4.69359 16.595 4.69639C16.6046 4.70106 16.598 4.69859 16.5826 4.68713C16.5674 4.67579 16.5612 4.66889 16.5656 4.67365C16.5686 4.67678 16.5785 4.6876 16.593 4.70717C16.6068 4.7259 16.6312 4.7614 16.6582 4.81395L15.2612 5.53349ZM16.1517 6.19297L15.8918 7.74274L19.1575 8.289L19.4168 6.7391L19.6761 5.18921L16.4116 4.6432L16.1517 6.19297ZM19.4168 6.7391L19.1553 8.28863C19.7896 8.39567 20.0845 8.59526 20.2129 8.71063C20.3459 8.82995 20.3883 8.93846 20.4013 8.98103L21.9041 8.52178L23.4068 8.06253C23.2561 7.56927 22.9403 6.93586 22.3131 6.37251C21.6816 5.80521 20.8148 5.38137 19.6783 5.18958L19.4168 6.7391ZM21.9041 8.52178L20.4013 8.98103C20.4214 9.04722 20.4477 9.1738 20.4073 9.35484C20.3682 9.53047 20.2425 9.86738 19.7919 10.3248L20.9113 11.4276L22.0306 12.5305C22.8389 11.7101 23.2915 10.862 23.475 10.0381C23.6573 9.21964 23.5505 8.53217 23.4068 8.06253L21.9041 8.52178ZM20.9113 11.4276L19.7941 10.3224L17.2556 12.8882L18.3728 13.9934L19.4899 15.0986L22.0284 12.5328L20.9113 11.4276ZM18.3728 13.9934L17.2578 12.8861C16.8774 13.2691 16.6778 13.7496 16.578 14.1028C16.477 14.4598 16.4014 14.9571 16.5076 15.4613L18.0453 15.1372L19.5829 14.8132C19.604 14.9127 19.5985 14.971 19.5983 14.9728C19.5977 14.9808 19.5977 14.9738 19.6021 14.9583C19.6065 14.9427 19.6093 14.9397 19.603 14.9518C19.5997 14.9581 19.5683 15.0196 19.4877 15.1008L18.3728 13.9934ZM18.0453 15.1372L16.5138 15.4891L17.2406 18.6525L18.7721 18.3007L20.3036 17.9489L19.5768 14.7854L18.0453 15.1372ZM18.7721 18.3007L17.2401 18.6507C17.4252 19.4609 17.3422 19.8927 17.2765 20.0825C17.2135 20.2648 17.1302 20.3305 17.1073 20.3476L18.0453 21.6084L18.9833 22.8692C19.4311 22.536 19.9466 21.9783 20.247 21.1095C20.5446 20.2483 20.5897 19.2014 20.3041 17.9507L18.7721 18.3007ZM18.0453 21.6084L17.1225 20.3365C17.0939 20.3572 17.0573 20.3788 17.011 20.3954C16.9671 20.4113 16.8988 20.4286 16.7965 20.4286V22V23.5714C17.7786 23.5714 18.504 23.2172 18.968 22.8805L18.0453 21.6084ZM11.0032 17.7958V19.3672C11.2646 19.3672 11.4808 19.435 11.6034 19.5077L12.4055 18.1564L13.2077 16.8052C12.5319 16.404 11.745 16.2244 11.0032 16.2244V17.7958ZM12.4055 18.1564L11.601 19.5063L14.6614 21.3303L15.4659 19.9804L16.2704 18.6305L13.21 16.8066L12.4055 18.1564ZM15.4659 19.9804L14.6559 21.327C15.2162 21.664 15.7647 21.8892 16.2887 21.9788C16.7594 22.0592 17.4544 22.0666 18.0513 21.6378L17.1343 20.3616L16.2174 19.0855C16.4217 18.9385 16.6066 18.8978 16.6937 18.8859C16.7869 18.873 16.8332 18.8834 16.8182 18.8809C16.7845 18.8751 16.6063 18.8325 16.276 18.6338L15.4659 19.9804ZM17.1343 20.3616L18.0513 21.6378C18.6817 21.1844 18.8704 20.4778 18.9291 20.0319C18.9969 19.5156 18.9507 18.9338 18.8114 18.309L17.2776 18.6511L15.7439 18.9932C15.8297 19.3782 15.8194 19.5745 15.8131 19.6221C15.8101 19.6446 15.8128 19.5979 15.8533 19.5105C15.8909 19.4293 15.9927 19.247 16.2174 19.0855L17.1343 20.3616ZM17.2776 18.6511L18.8092 18.2993L18.0824 15.1357L16.5509 15.4876L15.0193 15.8394L15.7461 19.003L17.2776 18.6511ZM16.5509 15.4876L18.0832 15.1393C18.0088 14.8117 18.1652 14.2519 18.4119 13.9993L17.2879 12.9012L16.1638 11.803C15.1823 12.8076 14.7042 14.4529 15.0185 15.8359L16.5509 15.4876ZM17.2879 12.9012L18.4028 14.0086L20.9411 11.4531L19.8262 10.3457L18.7114 9.23819L16.1729 11.7937L17.2879 12.9012ZM19.8262 10.3457L20.9411 11.4531C21.2804 11.1117 21.5868 10.715 21.7908 10.2746C21.9856 9.85394 22.1588 9.22952 21.9555 8.55338L20.4507 9.0061L18.9459 9.45881C18.8945 9.28807 18.8994 9.14781 18.9111 9.06592C18.9225 8.98625 18.9418 8.9475 18.939 8.95353C18.9369 8.95793 18.9221 8.98802 18.883 9.04136C18.8445 9.09373 18.7886 9.16042 18.7114 9.23819L19.8262 10.3457ZM20.4507 9.0061L21.9424 8.51185C21.7207 7.84292 21.2219 7.42895 20.8149 7.19414C20.3897 6.94878 19.9049 6.80184 19.4239 6.72349L19.1712 8.27447L18.9185 9.82545C19.0208 9.84211 19.1 9.86249 19.1574 9.8814C19.1858 9.89073 19.2072 9.89915 19.2221 9.90571C19.2295 9.90894 19.235 9.91157 19.2388 9.91347C19.235 9.91091 19.2287 9.90602 19.2212 9.90014C19.2061 9.88861 19.1824 9.86864 19.1541 9.83832C19.0977 9.77809 19.0144 9.6673 18.9589 9.50034L20.4507 9.0061ZM19.1712 8.27447L19.4305 6.72457L16.1654 6.17844L15.9061 7.72833L15.6469 9.27823L18.9119 9.82439L19.1712 8.27447ZM15.9061 7.72833L16.1693 6.17913C16.0691 6.16208 15.8835 6.09238 15.68 5.94091C15.4768 5.78968 15.3546 5.63051 15.3073 5.53519L13.8999 6.23419L12.4925 6.93318C12.8034 7.55917 13.2903 8.08012 13.8036 8.46213C14.3165 8.84392 14.9549 9.16066 15.6428 9.27756L15.9061 7.72833ZM13.8999 6.23419L15.3073 5.53519L13.5059 1.90805L12.0985 2.60703L10.6911 3.30602L12.4925 6.93318L13.8999 6.23419ZM12.0985 2.60703L13.5059 1.90805C13.2878 1.46894 13.0058 1.04113 12.6499 0.699899C12.3166 0.380313 11.754 -0.0154545 11.0032 -0.0154545V1.55597V3.1274C10.8028 3.1274 10.6554 3.0724 10.5758 3.03254C10.4985 2.99386 10.467 2.96104 10.4748 2.96849C10.4808 2.97421 10.5078 3.00193 10.5495 3.0619C10.5904 3.12072 10.6391 3.20135 10.6911 3.30602L12.0985 2.60703ZM11.0032 1.55597V-0.0154545C10.2523 -0.0154545 9.68886 0.380357 9.354 0.703617C8.99693 1.04832 8.7164 1.48061 8.50223 1.92573L9.91829 2.60703L11.3343 3.28834C11.3833 3.18659 11.4295 3.10857 11.4681 3.05214C11.5075 2.99458 11.5326 2.96884 11.5368 2.96477C11.5428 2.959 11.5101 2.99279 11.4318 3.03206C11.3513 3.07246 11.2036 3.1274 11.0032 3.1274V1.55597ZM9.91829 2.60703L8.51247 1.90486L6.70077 5.53201L8.1066 6.23419L9.51242 6.93637L11.3241 3.30921L9.91829 2.60703ZM8.1066 6.23419L6.6992 5.53519C6.65185 5.63051 6.52971 5.78968 6.3265 5.94093C6.12299 6.0924 5.9374 6.16208 5.83715 6.17913L6.10044 7.72833L6.36373 9.27754C7.05161 9.16065 7.68999 8.84391 8.20295 8.46213C8.71624 8.08012 9.2031 7.55919 9.51401 6.93319L8.1066 6.23419ZM6.10044 7.72833L5.8404 6.17858L2.5855 6.72471L2.84554 8.27447L3.10558 9.82423L6.36048 9.27811L6.10044 7.72833ZM2.84554 8.27447L2.59292 6.72349C2.11185 6.80184 1.62701 6.94877 1.20172 7.19414C0.794777 7.42893 0.295867 7.843 0.0743106 8.51219L1.5661 9.0061L3.05789 9.50004C3.00256 9.66713 2.91921 9.77797 2.86278 9.83825C2.83437 9.86859 2.81061 9.88859 2.79563 9.90011C2.78799 9.906 2.78207 9.91012 2.77823 9.91267C2.7763 9.91396 2.77482 9.91488 2.77385 9.9155C2.77288 9.91609 2.77236 9.91639 2.77234 9.91639C2.77234 9.91639 2.77446 9.91457 2.77823 9.91267C2.78201 9.91078 2.78719 9.90894 2.79458 9.90571C2.80954 9.89917 2.83088 9.89075 2.85926 9.8814C2.91669 9.86249 2.99596 9.84214 3.09816 9.82549L2.84554 8.27447ZM1.5661 9.0061L0.0743106 8.51219C-0.157591 9.21256 0.028117 9.86226 0.223701 10.2818C0.431092 10.7267 0.743552 11.1258 1.08704 11.4645L2.19047 10.3457L3.2939 9.22682C3.21907 9.15302 3.16441 9.08883 3.12665 9.03804C3.08812 8.9862 3.07376 8.95716 3.07228 8.954C3.06986 8.9488 3.09089 8.99095 3.10256 9.07632C3.11457 9.1641 3.11867 9.31647 3.05789 9.50004L1.5661 9.0061ZM2.19047 10.3457L1.07558 11.4531L3.61398 14.0086L4.72888 12.9012L5.84378 11.7937L3.30542 9.23818L2.19047 10.3457ZM4.72888 12.9012L3.61398 14.0086C3.6975 14.0927 3.81478 14.2746 3.88933 14.5362C3.96375 14.7974 3.96121 15.0174 3.93352 15.1392L5.46583 15.4876L6.99815 15.8361C7.16494 15.1025 7.10098 14.3385 6.91185 13.6748C6.72283 13.0116 6.37439 12.3279 5.84378 11.7937L4.72888 12.9012ZM5.46583 15.4876L3.93429 15.1358L3.20756 18.2993L4.73911 18.6511L6.27066 19.003L6.99738 15.8394L5.46583 15.4876ZM4.73911 18.6511L3.20793 18.2977C3.0617 18.9313 3.01334 19.52 3.08493 20.0437C3.14846 20.5086 3.34879 21.1942 3.96471 21.6373L4.88241 20.3616L5.80011 19.0859C6.01423 19.2401 6.1148 19.4126 6.15479 19.4966C6.19718 19.5855 6.20117 19.6352 6.19883 19.618C6.19366 19.5802 6.1811 19.391 6.27029 19.0045L4.73911 18.6511ZM4.88241 20.3616L3.96471 21.6373C4.57064 22.0729 5.27247 22.0545 5.73217 21.9736C6.2465 21.8829 6.78703 21.662 7.3427 21.3378L6.55079 19.9804L5.75892 18.623C5.41388 18.8243 5.22764 18.8711 5.18668 18.8784C5.16828 18.8817 5.2151 18.8705 5.31062 18.8829C5.40153 18.8949 5.59192 18.9362 5.80011 19.0859L4.88241 20.3616ZM6.55079 19.9804L7.3553 21.3303L10.4158 19.5065L9.61121 18.1564L8.80671 16.8066L5.74629 18.6305L6.55079 19.9804ZM9.61121 18.1564L10.4288 19.4984C10.5301 19.4367 10.7376 19.3672 11.0032 19.3672V17.7958V16.2244C10.2658 16.2244 9.47021 16.4023 8.79362 16.8144L9.61121 18.1564Z" fill="#F0C33C"/>
</g>
<path d="M18.4214 6.57115L19.4172 6.73843C21.1877 7.03732 21.7412 7.98583 21.9049 8.52163C22.0685 9.05747 22.1706 10.1505 20.9119 11.4282L18.3722 13.994C18.1269 14.2416 17.9737 14.7975 18.0453 15.1373L18.7727 18.3001C19.2435 20.361 18.5161 21.2584 18.0453 21.6087C17.7895 21.7943 17.3795 22 16.7962 22C16.2537 22 15.5574 21.8245 14.6876 21.3094L11.6276 19.4863C11.3103 19.3009 10.6963 19.3009 10.3892 19.4863L7.31848 21.3094C5.50679 22.3913 4.44183 21.9591 3.96077 21.6087C3.885 21.5523 3.80459 21.4797 3.72137 21.3923C3.7018 21.3719 3.68263 21.3502 3.66305 21.3279C3.63728 21.2984 3.61177 21.2672 3.58633 21.2342C3.54456 21.1805 3.50319 21.1227 3.46356 21.0593C3.45776 21.0499 3.45088 21.0413 3.44514 21.0317C3.43763 21.0193 3.43106 21.0061 3.42366 20.9933C3.39739 20.9475 3.37132 20.8997 3.34693 20.8491C3.33602 20.8265 3.32516 20.8035 3.31471 20.7799C3.30975 20.7688 3.30422 20.7576 3.29936 20.7462L3.3009 20.7432C3.20517 20.5177 3.12968 20.2483 3.09679 19.9252C3.09402 19.8985 3.09438 19.8713 3.09218 19.8438C3.0872 19.7804 3.08011 19.715 3.07837 19.6474H3.08297C3.08203 19.6117 3.07834 19.5754 3.07837 19.5385L3.35922 19.2915L4.90762 17.9133L4.73882 18.6514C4.66492 18.9719 4.63135 19.2445 4.62525 19.4725C4.61769 19.7626 4.65799 19.9802 4.7204 20.1324C4.76238 20.2343 4.81554 20.3065 4.87233 20.3519C4.87607 20.3549 4.87929 20.3583 4.88306 20.361C4.89816 20.3718 4.91682 20.378 4.93525 20.3871C5.02705 20.4319 5.15765 20.4565 5.33269 20.4393C5.62295 20.413 6.02863 20.2853 6.55118 19.9804L9.61116 18.1558C10 17.919 10.5017 17.7952 11.003 17.7952C11.5045 17.7952 12.0065 17.919 12.4057 18.1558L15.4657 19.9804C16.356 20.5161 16.9188 20.5155 17.1337 20.361C17.3487 20.2064 17.503 19.6611 17.278 18.6514L16.5506 15.4872C16.3565 14.6322 16.6735 13.5299 17.2873 12.9014L19.827 10.3463C20.3284 9.84149 20.5522 9.34658 20.4501 9.00657C20.3374 8.66658 19.8674 8.38798 19.1717 8.27455L18.2846 8.12416L16.2943 7.79269L17.5021 6.72002L17.7874 6.46527L18.4214 6.57115Z" fill="#BCBCBC"/>
</g>
</g>
<defs>
<clipPath id="clip0_84_22">
<rect width="22" height="22" fill="white"/>
</clipPath>
</defs>
</svg>
