<svg width="22" height="22" viewBox="0 -1 22 22" fill="none" xmlns="http://www.w3.org/2000/svg">
<g clip-path="url(#clip0_84_12)">
<mask id="mask0_84_12" style="mask-type:luminance" maskUnits="userSpaceOnUse" x="0" y="-1" width="22" height="22">
<path d="M22 -1H0V21H22V-1Z" fill="white"/>
</mask>
<g mask="url(#mask0_84_12)">
<path d="M3.92859 10.7857L13.3572 2.92857" stroke="#F0C33C" stroke-linecap="round" stroke-linejoin="round"/>
<path d="M3.88135 18.8786L18.0243 6.30713" stroke="#F0C33C" stroke-linecap="round"/>
<path d="M16.7965 21C16.2541 21 15.5581 20.8248 14.6881 20.3097L11.6277 18.4857C11.3104 18.3003 10.6962 18.3003 10.3892 18.4857L7.31852 20.3097C5.50684 21.3916 4.44233 20.9588 3.96127 20.6084C3.49043 20.2581 2.75347 19.3616 3.23455 17.3007L3.96127 14.1372C4.04314 13.8075 3.87939 13.2407 3.63372 12.9934L1.09532 10.4379C-0.173883 9.16018 -0.071528 8.06791 0.102476 7.53209C0.27648 6.99625 0.829197 6.04825 2.5897 5.74941L5.85483 5.20328C6.1619 5.15175 6.60203 4.82202 6.7351 4.5438L8.54678 0.906316C9.36562 -0.752693 10.4404 -1 11.0033 -1C11.5662 -1 12.641 -0.752693 13.4598 0.906316L15.2613 4.53349C15.4046 4.81171 15.8447 5.14146 16.1518 5.19297L19.4169 5.7391C21.1876 6.03794 21.7404 6.98595 21.9041 7.52178C22.0679 8.0576 22.1702 9.14989 20.9113 10.4276L18.3728 12.9934C18.1272 13.2407 17.9737 13.7972 18.0453 14.1372L18.7721 17.3007C19.2429 19.3616 18.5161 20.2581 18.0453 20.6084C17.7895 20.794 17.38 21 16.7965 21ZM11.0033 16.7958C11.5048 16.7958 12.0064 16.9195 12.4056 17.1564L15.466 18.9804C16.3565 19.5161 16.9194 19.5161 17.1344 19.3616C17.3494 19.207 17.5029 18.6609 17.2777 17.6511L16.5509 14.4876C16.3565 13.6323 16.6738 12.5297 17.2879 11.9012L19.8262 9.34567C20.3278 8.84074 20.553 8.34613 20.4507 8.00609C20.3381 7.66604 19.8673 7.38783 19.1713 7.27447L15.9062 6.72833C15.118 6.59438 14.2582 5.9555 13.8999 5.23419L12.0985 1.60703C11.771 0.947534 11.3615 0.555972 11.0033 0.555972C10.6451 0.555972 10.2356 0.947534 9.91834 1.60703L8.10665 5.23419C7.7484 5.9555 6.88862 6.59438 6.10049 6.72833L2.84559 7.27447C2.14957 7.38783 1.67874 7.66604 1.56615 8.00609C1.45356 8.34613 1.68899 8.85105 2.19052 9.34567L4.72893 11.9012C5.34306 12.5194 5.66036 13.6323 5.46588 14.4876L4.73916 17.6511C4.50375 18.6711 4.66752 19.207 4.88246 19.3616C5.0974 19.5161 5.65012 19.5059 6.55085 18.9804L9.61127 17.1564C10.0002 16.9195 10.5018 16.7958 11.0033 16.7958Z" fill="#F0C33C"/>
<path d="M13.8286 18.0143L17.1285 14.7143" stroke="#BCBCBC" stroke-width="1.6" stroke-linecap="round"/>
<path d="M21.9064 8.82449C21.7759 9.29605 21.4882 9.84333 20.912 10.4282L18.3722 12.994C18.1269 13.2416 17.9737 13.7975 18.0454 14.1373L18.1896 14.7633H18.1881L18.7728 17.3001C19.2436 19.361 18.5162 20.2584 18.0454 20.6087C17.7895 20.7943 17.3796 21 16.7962 21C16.2538 21 15.5575 20.8245 14.6877 20.3094L13.4063 19.5452V19.5467L12.0144 18.7166L13.1377 17.5931L14.5311 18.4219L15.4657 18.9804C16.3561 19.5161 16.9188 19.5155 17.1338 19.361C17.3488 19.2064 17.5031 18.6611 17.278 17.6514L16.9083 16.0448L16.5506 14.4872C16.5311 14.4014 16.5172 14.3132 16.5077 14.2232L21.9064 8.82449Z" fill="#BCBCBC"/>
</g>
</g>
<defs>
<clipPath id="clip0_84_12">
<rect width="22" height="22" fill="white" transform="translate(0 -1)"/>
</clipPath>
</defs>
</svg>
