<svg width="22" height="22" viewBox="0 0 22 22" fill="none" xmlns="http://www.w3.org/2000/svg">
<g clip-path="url(#clip0_84_2)">
<mask id="mask0_84_2" style="mask-type:luminance" maskUnits="userSpaceOnUse" x="0" y="0" width="22" height="22">
<path d="M22 0H0V22H22V0Z" fill="white"/>
</mask>
<g mask="url(#mask0_84_2)">
<path d="M16.7965 22C16.2541 22 15.5581 21.8248 14.6881 21.3097L11.6277 19.4857C11.3104 19.3003 10.6962 19.3003 10.3892 19.4857L7.31852 21.3097C5.50684 22.3916 4.44233 21.9588 3.96127 21.6084C3.49043 21.2581 2.75347 20.3616 3.23455 18.3007L3.96127 15.1372C4.04314 14.8075 3.87939 14.2407 3.63372 13.9934L1.09532 11.4379C-0.173883 10.1602 -0.071528 9.06791 0.102476 8.53209C0.27648 7.99625 0.829197 7.04825 2.5897 6.74941L5.85483 6.20328C6.1619 6.15175 6.60203 5.82202 6.7351 5.5438L8.54678 1.90632C9.36562 0.247307 10.4404 0 11.0033 0C11.5663 0 12.641 0.247307 13.4598 1.90632L15.2613 5.53349C15.4046 5.81171 15.8447 6.14146 16.1518 6.19297L19.4169 6.7391C21.1876 7.03794 21.7404 7.98595 21.9041 8.52178C22.0679 9.0576 22.1702 10.1499 20.9113 11.4276L18.3728 13.9934C18.1272 14.2407 17.9737 14.7972 18.0453 15.1372L18.7721 18.3007C19.2429 20.3616 18.5161 21.2581 18.0453 21.6084C17.7895 21.794 17.38 22 16.7965 22ZM11.0033 17.7958C11.5048 17.7958 12.0064 17.9195 12.4056 18.1564L15.466 19.9804C16.3565 20.5161 16.9194 20.5161 17.1344 20.3616C17.3494 20.207 17.5029 19.6609 17.2777 18.6511L16.5509 15.4876C16.3565 14.6323 16.6738 13.5297 17.2879 12.9012L19.8262 10.3457C20.3278 9.84074 20.553 9.34613 20.4507 9.00609C20.3381 8.66604 19.8673 8.38783 19.1713 8.27447L15.9062 7.72833C15.118 7.59438 14.2582 6.9555 13.8999 6.23419L12.0985 2.60703C11.771 1.94753 11.3615 1.55597 11.0033 1.55597C10.6451 1.55597 10.2356 1.94753 9.91834 2.60703L8.10666 6.23419C7.7484 6.9555 6.88863 7.59438 6.10049 7.72833L2.84559 8.27447C2.14957 8.38783 1.67874 8.66604 1.56616 9.00609C1.45356 9.34613 1.68899 9.85105 2.19052 10.3457L4.72893 12.9012C5.34306 13.5194 5.66037 14.6323 5.46589 15.4876L4.73916 18.6511C4.50375 19.6711 4.66752 20.207 4.88246 20.3616C5.0974 20.5161 5.65012 20.5059 6.55085 19.9804L9.61127 18.1564C10.0002 17.9195 10.5018 17.7958 11.0033 17.7958Z" fill="#F0C33C"/>
<path d="M3.92859 11.7857L13.3572 3.92857" stroke="#BCBCBC" stroke-width="1.6" stroke-linecap="round" stroke-linejoin="round"/>
<path d="M13.8286 19.0143L17.1285 15.7143" stroke="#BCBCBC" stroke-width="1.6" stroke-linecap="round"/>
<path d="M3.88135 19.8786L18.0243 7.30713" stroke="#BCBCBC" stroke-width="1.6" stroke-linecap="round"/>
<path d="M14.4989 3.99764L15.2616 5.53376C15.4051 5.81191 15.8448 6.14215 16.1517 6.19365L19.4172 6.73843C21.1878 7.03731 21.7412 7.98583 21.905 8.52162C21.9447 8.652 21.9785 8.81565 21.9923 9.00657L21.8143 9.19685L21.9908 9.36565C21.9443 9.92503 21.6867 10.6418 20.912 11.4282L18.3722 13.994C18.1269 14.2416 17.9737 14.7975 18.0454 15.1373L18.7728 18.3001C18.8646 18.7016 18.9086 19.0597 18.92 19.3774L18.8801 19.4265L18.92 19.4603C18.9425 20.7172 18.4164 21.3326 18.0454 21.6087C17.7896 21.7943 17.3796 22 16.7963 22C16.2538 22 15.5575 21.8245 14.6877 21.3094L11.6277 19.4863C11.3104 19.3009 10.6964 19.3009 10.3893 19.4863L7.31855 21.3094C6.87461 21.5746 6.4751 21.7475 6.11848 21.8542L6.04637 21.7775L5.91439 21.9079C4.93279 22.1425 4.30103 21.8565 3.96085 21.6087C3.48999 21.2583 2.75396 20.3607 3.23497 18.3001L3.96085 15.1373C4.04267 14.8077 3.87943 14.2415 3.63398 13.994L3.12142 13.4784L2.01038 12.3596L3.20276 11.3652L4.31533 12.484L4.72969 12.9014C5.34341 13.5196 5.66049 14.6322 5.46629 15.4872L4.73888 18.6514C4.50362 19.6713 4.66823 20.2064 4.88314 20.361C5.09819 20.5155 5.65072 20.5059 6.55125 19.9804L9.61124 18.1558C10.0001 17.919 10.5017 17.7952 11.0031 17.7952C11.5046 17.7952 12.0066 17.919 12.4057 18.1558L15.4657 19.9804C16.3561 20.5161 16.9188 20.5155 17.1338 20.361C17.3488 20.2064 17.5031 19.6611 17.2781 18.6514L16.5506 15.4872C16.3566 14.6322 16.6735 13.5299 17.2873 12.9014L19.8271 10.3463C20.3285 9.84148 20.5523 9.34658 20.4501 9.00657C20.3375 8.66657 19.8675 8.38797 19.1718 8.27455L15.9062 7.72824C15.118 7.59426 14.2587 6.95485 13.9004 6.23354L13.2897 5.00587L12.5715 3.55874L13.7807 2.55203L14.4989 3.99764Z" fill="#BCBCBC"/>
</g>
</g>
<defs>
<clipPath id="clip0_84_2">
<rect width="22" height="22" fill="white"/>
</clipPath>
</defs>
</svg>
