<svg width="22" height="22" viewBox="0 0 22 22" fill="none" xmlns="http://www.w3.org/2000/svg">
<g clip-path="url(#clip0_91_169)">
<path d="M16.7965 22C16.2541 22 15.5581 21.8248 14.6881 21.3097L11.6277 19.4857C11.3104 19.3003 10.6962 19.3003 10.3892 19.4857L7.31852 21.3097C5.50684 22.3916 4.44233 21.9588 3.96127 21.6084C3.49043 21.2581 2.75347 20.3616 3.23455 18.3007L3.96127 15.1372C4.04314 14.8075 3.87939 14.2407 3.63372 13.9934L1.09532 11.4379C-0.173883 10.1602 -0.071528 9.06791 0.102476 8.53209C0.27648 7.99625 0.829197 7.04825 2.5897 6.74941L5.85483 6.20328C6.1619 6.15175 6.60203 5.82202 6.7351 5.5438L8.54678 1.90632C9.36562 0.247307 10.4404 0 11.0033 0C11.5663 0 12.641 0.247307 13.4598 1.90632L15.2613 5.53349C15.4046 5.81171 15.8447 6.14146 16.1518 6.19297L19.4169 6.7391C21.1876 7.03794 21.7404 7.98595 21.9041 8.52178C22.0679 9.0576 22.1702 10.1499 20.9113 11.4276L18.3728 13.9934C18.1272 14.2407 17.9737 14.7972 18.0453 15.1372L18.7721 18.3007C19.2429 20.3616 18.5161 21.2581 18.0453 21.6084C17.7895 21.794 17.38 22 16.7965 22ZM11.0033 17.7958C11.5048 17.7958 12.0064 17.9195 12.4056 18.1564L15.466 19.9804C16.3565 20.5161 16.9194 20.5161 17.1344 20.3616C17.3494 20.207 17.5029 19.6609 17.2777 18.6511L16.5509 15.4876C16.3565 14.6323 16.6738 13.5297 17.2879 12.9012L19.8262 10.3457C20.3278 9.84074 20.553 9.34613 20.4507 9.00609C20.3381 8.66604 19.8673 8.38783 19.1713 8.27447L15.9062 7.72833C15.118 7.59438 14.2582 6.9555 13.8999 6.23419L12.0985 2.60703C11.771 1.94753 11.3615 1.55597 11.0033 1.55597C10.6451 1.55597 10.2356 1.94753 9.91834 2.60703L8.10666 6.23419C7.7484 6.9555 6.88863 7.59438 6.10049 7.72833L2.84559 8.27447C2.14957 8.38783 1.67874 8.66604 1.56616 9.00609C1.45356 9.34613 1.68899 9.85105 2.19052 10.3457L4.72893 12.9012C5.34306 13.5194 5.66037 14.6323 5.46589 15.4876L4.73916 18.6511C4.50375 19.6711 4.66752 20.207 4.88246 20.3616C5.0974 20.5161 5.65012 20.5059 6.55085 19.9804L9.61127 18.1564C10.0002 17.9195 10.5018 17.7958 11.0033 17.7958Z" fill="#BCBCBC"/>
<path d="M3.92859 11.7857L13.3572 3.92857" stroke="#BCBCBC" stroke-width="1.6" stroke-linecap="round" stroke-linejoin="round"/>
<path d="M3.88147 19.8786L18.0243 7.30713" stroke="#BCBCBC" stroke-width="1.6" stroke-linecap="round"/>
<path d="M13.8286 19.0143L17.1286 15.7143" stroke="#BCBCBC" stroke-width="1.6" stroke-linecap="round"/>
</g>
<defs>
<clipPath id="clip0_91_169">
<rect width="22" height="22" fill="white"/>
</clipPath>
</defs>
</svg>
