<svg width="8" height="8" viewBox="0 0 14 14" fill="none" xmlns="http://www.w3.org/2000/svg">
    <defs>
        <pattern id="hatch" patternUnits="userSpaceOnUse" width="3.5" height="3.5" patternTransform="rotate(45)">
            <line x1="0" y1="0" x2="0" y2="4" stroke="#f0c33c" stroke-width="2.5" />
        </pattern>
        <mask id="star-mask">
            <path d="M10.6887 14C10.3435 14 9.90061 13.8885 9.34696 13.5607L7.39942 12.4C7.19751 12.282 6.8067 12.282 6.61129 12.4L4.65724 13.5607C3.50435 14.2492 2.82694 13.9738 2.52081 13.7508C2.22118 13.5279 1.75221 12.9574 2.05835 11.6459L2.52081 9.63279C2.57291 9.42295 2.4687 9.06229 2.31237 8.90492L0.697022 7.27869C-0.110653 6.46557 -0.0455178 5.77049 0.0652119 5.42951C0.175942 5.08852 0.527671 4.48525 1.64799 4.29508L3.7258 3.94754C3.92121 3.91475 4.20129 3.70492 4.28597 3.52787L5.43886 1.21311C5.95994 0.157377 6.64386 0 7.0021 0C7.36034 0 8.04426 0.157377 8.56534 1.21311L9.71172 3.52131C9.80291 3.69836 10.083 3.9082 10.2784 3.94098L12.3562 4.28852C13.483 4.47869 13.8348 5.08197 13.939 5.42295C14.0432 5.76393 14.1083 6.45902 13.3072 7.27213L11.6918 8.90492C11.5355 9.06229 11.4378 9.41639 11.4834 9.63279L11.9459 11.6459C12.2455 12.9574 11.783 13.5279 11.4834 13.7508C11.3206 13.8689 11.06 14 10.6887 14Z" fill="white"/>
        </mask>
    </defs>

    <!-- Штриховка -->
    <rect width="14" height="14" fill="url(#hatch)" mask="url(#star-mask)" />

    <!-- Контур звезды -->
    <path d="M10.6887 14C10.3435 14 9.90061 13.8885 9.34696 13.5607L7.39942 12.4C7.19751 12.282 6.8067 12.282 6.61129 12.4L4.65724 13.5607C3.50435 14.2492 2.82694 13.9738 2.52081 13.7508C2.22118 13.5279 1.75221 12.9574 2.05835 11.6459L2.52081 9.63279C2.57291 9.42295 2.4687 9.06229 2.31237 8.90492L0.697022 7.27869C-0.110653 6.46557 -0.0455178 5.77049 0.0652119 5.42951C0.175942 5.08852 0.527671 4.48525 1.64799 4.29508L3.7258 3.94754C3.92121 3.91475 4.20129 3.70492 4.28597 3.52787L5.43886 1.21311C5.95994 0.157377 6.64386 0 7.0021 0C7.36034 0 8.04426 0.157377 8.56534 1.21311L9.71172 3.52131C9.80291 3.69836 10.083 3.9082 10.2784 3.94098L12.3562 4.28852C13.483 4.47869 13.8348 5.08197 13.939 5.42295C14.0432 5.76393 14.1083 6.45902 13.3072 7.27213L11.6918 8.90492C11.5355 9.06229 11.4378 9.41639 11.4834 9.63279L11.9459 11.6459C12.2455 12.9574 11.783 13.5279 11.4834 13.7508C11.3206 13.8689 11.06 14 10.6887 14ZM7.0021 11.3246C7.32126 11.3246 7.64042 11.4033 7.89445 11.5541L9.84199 12.7148C10.4087 13.0557 10.7669 13.0557 10.9037 12.9574C11.0405 12.859 11.1382 12.5115 10.9949 11.8689L10.5324 9.85574C10.4087 9.31148 10.6106 8.60984 11.0014 8.20984L12.6167 6.58361C12.9359 6.26229 13.0792 5.94754 13.0141 5.73115C12.9424 5.51475 12.6428 5.33771 12.1999 5.26557L10.1221 4.91803C9.62053 4.83279 9.0734 4.42623 8.84542 3.96721L7.69905 1.65902C7.49061 1.23934 7.23007 0.990164 7.0021 0.990164C6.77413 0.990164 6.51359 1.23934 6.31167 1.65902L5.15878 3.96721C4.9308 4.42623 4.38367 4.83279 3.88213 4.91803L1.81083 5.26557C1.36791 5.33771 1.06829 5.51475 0.996644 5.73115C0.924995 5.94754 1.07481 6.26885 1.39397 6.58361L3.00932 8.20984C3.40013 8.60328 3.60205 9.31148 3.47829 9.85574L3.01583 11.8689C2.86602 12.518 2.97024 12.859 3.10702 12.9574C3.2438 13.0557 3.59553 13.0492 4.16872 12.7148L6.11626 11.5541C6.36378 11.4033 6.68294 11.3246 7.0021 11.3246Z" fill="#f0c33c"/>
</svg>
