<svg width="24" height="24" viewBox="0 0 24 24" fill="none" xmlns="http://www.w3.org/2000/svg">
<path d="M12.7475 20.3375C12.5575 20.3375 12.3675 20.2675 12.2175 20.1175C11.9275 19.8275 11.9275 19.3475 12.2175 19.0575L18.7375 12.5375C19.2175 12.0575 19.2175 11.2775 18.7375 10.7975L12.2175 4.2775C11.9275 3.9875 11.9275 3.5075 12.2175 3.2175C12.5075 2.9275 12.9875 2.9275 13.2775 3.2175L19.7975 9.7375C20.3075 10.2475 20.5975 10.9375 20.5975 11.6675C20.5975 12.3975 20.3175 13.0875 19.7975 13.5975L13.2775 20.1175C13.1275 20.2575 12.9375 20.3375 12.7475 20.3375Z" fill="#292D32"/>
</svg>
