<svg width="34" height="91" viewBox="0 0 34 91" fill="none" xmlns="http://www.w3.org/2000/svg">
<path d="M3.03758 90.9C2.29056 90.9 1.54353 90.5334 0.953778 89.7478C-0.186416 88.229 -0.186416 85.7152 0.953778 84.1964L26.5885 50.0498C28.4757 47.536 28.4757 43.451 26.5885 40.9371L0.953778 6.79053C-0.186416 5.27175 -0.186416 2.75789 0.953778 1.2391C2.09397 -0.279691 3.98119 -0.279691 5.12138 1.2391L30.7561 35.3857C32.7613 38.0566 33.9015 41.6703 33.9015 45.4935C33.9015 49.3166 32.8006 52.9303 30.7561 55.6013L5.12138 89.7478C4.53163 90.481 3.7846 90.9 3.03758 90.9Z" fill="#003E8B" fill-opacity="0.5"/>
</svg>
