<svg width="46" height="142" viewBox="0 0 46 142" fill="none" xmlns="http://www.w3.org/2000/svg">
<path d="M4.5696 141.4C3.58352 141.4 2.59745 140.832 1.81898 139.613C0.313922 137.258 0.313922 133.36 1.81898 131.005L35.6568 78.0552C38.1479 74.1571 38.1479 67.8226 35.6568 63.9245L1.81898 10.9747C0.313922 8.61961 0.313922 4.72147 1.81898 2.36634C3.32403 0.011217 5.81516 0.011217 7.32021 2.36634L41.158 55.3161C43.8049 59.4579 45.3099 65.0614 45.3099 70.9899C45.3099 76.9183 43.8568 82.5219 41.158 86.6636L7.32021 139.613C6.54174 140.75 5.55567 141.4 4.5696 141.4Z" fill="#003E8B" fill-opacity="0.5"/>
</svg>
