<svg width="24" height="24" viewBox="0 0 24 24" fill="none" xmlns="http://www.w3.org/2000/svg">
<path d="M16.994 21.5539C16.5047 21.5539 15.877 21.3969 15.0924 20.9354L12.3324 19.3015C12.0463 19.1354 11.4924 19.1354 11.2155 19.3015L8.44627 20.9354C6.81242 21.9046 5.85242 21.5169 5.41858 21.2031C4.99396 20.8892 4.32935 20.0862 4.76319 18.24L5.41858 15.4062C5.49242 15.1108 5.34473 14.6031 5.12319 14.3815L2.83396 12.0923C1.68935 10.9477 1.78165 9.96924 1.93858 9.48924C2.0955 9.00924 2.59396 8.16001 4.18165 7.89231L7.12627 7.40308C7.40319 7.35693 7.80012 7.06155 7.92012 6.81231L9.55396 3.55385C10.2924 2.0677 11.2617 1.84616 11.7693 1.84616C12.277 1.84616 13.2463 2.0677 13.9847 3.55385L15.6093 6.80308C15.7386 7.05231 16.1355 7.3477 16.4124 7.39385L19.357 7.88308C20.954 8.15078 21.4524 9.00001 21.6001 9.48001C21.7478 9.96001 21.8401 10.9385 20.7047 12.0831L18.4155 14.3815C18.194 14.6031 18.0555 15.1015 18.1201 15.4062L18.7755 18.24C19.2001 20.0862 18.5447 20.8892 18.1201 21.2031C17.8893 21.3692 17.5201 21.5539 16.994 21.5539ZM11.7693 17.7877C12.2217 17.7877 12.674 17.8985 13.034 18.1108L15.794 19.7446C16.597 20.2246 17.1047 20.2246 17.2986 20.0862C17.4924 19.9477 17.6309 19.4585 17.4278 18.5539L16.7724 15.72C16.597 14.9539 16.8832 13.9662 17.437 13.4031L19.7263 11.1139C20.1786 10.6615 20.3817 10.2185 20.2893 9.91385C20.1878 9.60924 19.7632 9.36001 19.1355 9.25847L16.1909 8.76924C15.4801 8.64924 14.7047 8.07693 14.3817 7.43078L12.757 4.18155C12.4617 3.59078 12.0924 3.24001 11.7693 3.24001C11.4463 3.24001 11.077 3.59078 10.7909 4.18155L9.15704 7.43078C8.83396 8.07693 8.05858 8.64924 7.34781 8.76924L4.41242 9.25847C3.78473 9.36001 3.36012 9.60924 3.25858 9.91385C3.15704 10.2185 3.36935 10.6708 3.82165 11.1139L6.11088 13.4031C6.66473 13.9569 6.95089 14.9539 6.7755 15.72L6.12012 18.5539C5.90781 19.4677 6.0555 19.9477 6.24935 20.0862C6.44319 20.2246 6.94165 20.2154 7.75396 19.7446L10.514 18.1108C10.8647 17.8985 11.317 17.7877 11.7693 17.7877Z" fill="#292D32"/>
</svg>
