<svg width="26" height="26" viewBox="0 0 26 26" fill="none" xmlns="http://www.w3.org/2000/svg">
<path d="M11.7 22.3745C11.4786 22.3745 11.2571 22.336 11.0452 22.259C10.323 21.9894 9.86078 21.3153 9.86078 20.5449V14.3338H7.60745C6.87559 14.3338 6.24003 13.9197 5.94151 13.2553C5.64299 12.5908 5.75854 11.8397 6.24002 11.2908L13.5297 3.00936C14.04 2.43159 14.8297 2.22936 15.5519 2.50862C16.2741 2.77825 16.7363 3.45232 16.7363 4.22269V10.4338H18.9897C19.7216 10.4338 20.3571 10.8479 20.6556 11.5123C20.9541 12.1768 20.8386 12.9279 20.3571 13.4768L13.0674 21.7583C12.7111 22.1627 12.2104 22.3745 11.7 22.3745ZM14.8874 3.82788C14.8008 3.82788 14.6948 3.85677 14.6082 3.96269L7.31854 12.2538C7.16446 12.4271 7.22226 12.6005 7.25115 12.6679C7.28004 12.7353 7.37634 12.899 7.60745 12.899H10.583C10.9778 12.899 11.3052 13.2264 11.3052 13.6212V20.5545C11.3052 20.7953 11.4786 20.8916 11.5556 20.9205C11.6326 20.9494 11.8252 20.9975 11.9793 20.8145L19.269 12.5234C19.423 12.3501 19.3653 12.1768 19.3364 12.1094C19.3075 12.042 19.2112 11.8783 18.9801 11.8783H16.0045C15.6097 11.8783 15.2823 11.5508 15.2823 11.156V4.22269C15.2823 3.98195 15.109 3.88566 15.0319 3.85677C15.003 3.83751 14.9452 3.82788 14.8874 3.82788Z" fill="#292D32"/>
</svg>
