<svg width="24" height="24" viewBox="0 0 24 24" fill="none" xmlns="http://www.w3.org/2000/svg">
<path d="M14.5544 22.4538C14.3844 22.4538 14.2243 22.4138 14.0943 22.3338C13.6443 22.0439 11.4044 20.4938 10.9944 18.1338C10.7744 16.8238 11.1443 15.5238 12.1043 14.2838C14.8943 10.6738 15.2043 9.62381 15.2143 9.58381C15.2543 9.30381 15.4443 9.10381 15.7143 9.01381C15.9843 8.92381 16.2643 9.01381 16.4743 9.21381C18.7543 11.4238 19.7944 13.7038 19.5544 15.9938C19.1744 19.5838 15.6944 21.9338 15.0044 22.3638C14.8844 22.4138 14.7144 22.4538 14.5544 22.4538ZM16.1743 11.0439C15.7143 11.8539 14.8743 13.1538 13.2943 15.1838C12.5843 16.0938 12.3243 16.9738 12.4743 17.8638C12.7143 19.2538 13.9344 20.3438 14.5644 20.8138C15.5544 20.1238 17.7944 18.3038 18.0544 15.7938C18.2244 14.2538 17.5943 12.6639 16.1743 11.0439Z" fill="#292D32"/>
<path d="M10.0745 22.4638C9.81454 22.4638 9.55451 22.3938 9.36451 22.3438C7.15451 21.7138 5.15452 19.6938 4.37452 17.3238C3.57452 14.8938 4.06447 12.3538 5.76447 10.1638C8.86447 6.10378 9.89454 2.83377 10.1345 1.93377C10.2445 1.50377 10.5645 1.17377 11.0045 1.04377C11.4545 0.92377 11.9445 1.05377 12.2845 1.39377C12.3145 1.41377 12.3345 1.44377 12.3545 1.47377C13.2945 2.73377 14.3045 4.98377 14.3045 7.52377C14.3045 9.26377 13.0845 10.8438 11.9045 12.3638C10.6545 13.9838 9.36454 15.6538 9.50454 17.4638C9.63454 18.8038 10.2145 19.8238 10.6045 20.5038C10.9345 21.0738 11.2445 21.6138 10.8545 22.1238C10.6445 22.3838 10.3645 22.4638 10.0745 22.4638ZM11.4445 2.79377C10.9845 4.30377 9.78448 7.36377 6.95448 11.0838C5.18448 13.3738 5.35451 15.4938 5.80451 16.8638C6.33451 18.4738 7.53452 19.8738 8.93453 20.5738C8.55452 19.8338 8.13448 18.8338 8.01448 17.5938C7.83448 15.1938 9.36451 13.2038 10.7245 11.4438C11.7945 10.0538 12.8045 8.74377 12.8045 7.51377C12.8045 5.61377 12.1245 3.87377 11.4445 2.79377Z" fill="#292D32"/>
</svg>
