<svg width="24" height="24" viewBox="0 0 24 24" fill="none" xmlns="http://www.w3.org/2000/svg">
<path opacity="0.4" d="M11.5 21C16.7467 21 21 16.7467 21 11.5C21 6.25329 16.7467 2 11.5 2C6.25329 2 2 6.25329 2 11.5C2 16.7467 6.25329 21 11.5 21Z" fill="#427AC0"/>
<path d="M22.9209 24C22.6444 24 22.3679 23.8924 22.1682 23.6925L19.3111 20.8332C18.8963 20.4181 18.8963 19.7417 19.3111 19.3113C19.7258 18.8962 20.4017 18.8962 20.8318 19.3113L23.6889 22.1706C24.1037 22.5857 24.1037 23.2621 23.6889 23.6925C23.4739 23.8924 23.1974 24 22.9209 24Z" fill="#292D32"/>
</svg>
